<svg width="29" height="24" viewBox="0 0 29 24" fill="none" xmlns="http://www.w3.org/2000/svg">
<path d="M9.58526 11.1867C10.6816 11.6691 11.5367 12.3926 12.1507 13.3574C12.7646 14.3222 13.0716 15.4624 13.0716 16.778C13.0716 18.6637 12.4796 20.1986 11.2955 21.3826C10.1115 22.5228 8.59855 23.0929 6.7567 23.0929C4.91485 23.0929 3.37998 22.5009 2.15208 21.3168C0.968032 20.1328 0.376009 18.6199 0.376009 16.778C0.376009 15.9009 0.485643 15.0239 0.70491 14.1468C0.924178 13.2697 1.40657 11.9541 2.15208 10.2L5.96734 0.727599H12.4796L9.58526 11.1867ZM25.1094 11.1867C26.2058 11.6691 27.0609 12.3926 27.6749 13.3574C28.2888 14.3222 28.5958 15.4624 28.5958 16.778C28.5958 18.6637 28.0038 20.1986 26.8197 21.3826C25.6357 22.5228 24.1227 23.0929 22.2809 23.0929C20.439 23.0929 18.9041 22.5009 17.6762 21.3168C16.4922 20.1328 15.9002 18.6199 15.9002 16.778C15.9002 15.9009 16.0098 15.0239 16.2291 14.1468C16.4483 13.2697 16.9307 11.9541 17.6762 10.2L21.4915 0.727599H28.0038L25.1094 11.1867Z" fill="#CD4631"/>
</svg>
