<svg width="18" height="18" viewBox="0 0 18 18" fill="none" xmlns="http://www.w3.org/2000/svg">
<path d="M8.15845 6.14453V8.63785V9.63443V12.1277H10.2152V9.63443V8.63785V6.14453H8.15845Z" fill="black"/>
<path d="M1.98835 9.60413C2.55645 9.60413 3.01698 9.1436 3.01698 8.5755C3.01698 8.0074 2.55645 7.54688 1.98835 7.54688C1.42025 7.54688 0.959717 8.0074 0.959717 8.5755C0.959717 9.1436 1.42025 9.60413 1.98835 9.60413Z" fill="black"/>
<path d="M1.98835 10.7252C2.55645 10.7252 3.01698 10.2647 3.01698 9.6966C3.01698 9.1285 2.55645 8.66797 1.98835 8.66797C1.42025 8.66797 0.959717 9.1285 0.959717 9.6966C0.959717 10.2647 1.42025 10.7252 1.98835 10.7252Z" fill="black"/>
<path d="M3.01698 8.5752H0.959717V9.69733H3.01698V8.5752Z" fill="black"/>
<path d="M16.3853 10.7252C16.9534 10.7252 17.4139 10.2647 17.4139 9.6966C17.4139 9.1285 16.9534 8.66797 16.3853 8.66797C15.8172 8.66797 15.3567 9.1285 15.3567 9.6966C15.3567 10.2647 15.8172 10.7252 16.3853 10.7252Z" fill="black"/>
<path d="M16.3853 9.60413C16.9534 9.60413 17.4139 9.1436 17.4139 8.5755C17.4139 8.0074 16.9534 7.54688 16.3853 7.54688C15.8172 7.54688 15.3567 8.0074 15.3567 8.5755C15.3567 9.1436 15.8172 9.60413 16.3853 9.60413Z" fill="black"/>
<path d="M15.3567 9.69733H17.4139V8.5752H15.3567V9.69733Z" fill="black"/>
<path d="M5.54084 12.9694C6.10892 12.9694 6.56946 12.5088 6.56946 11.9407C6.56946 11.3726 6.10892 10.9121 5.54084 10.9121C4.97274 10.9121 4.51221 11.3726 4.51221 11.9407C4.51221 12.5088 4.97274 12.9694 5.54084 12.9694Z" fill="black"/>
<path d="M5.54084 14.0915C6.10892 14.0915 6.56946 13.631 6.56946 13.0629C6.56946 12.4948 6.10892 12.0342 5.54084 12.0342C4.97274 12.0342 4.51221 12.4948 4.51221 13.0629C4.51221 13.631 4.97274 14.0915 5.54084 14.0915Z" fill="black"/>
<path d="M6.56946 11.9404H4.51221V13.0626H6.56946V11.9404Z" fill="black"/>
<path d="M5.54084 6.2379C6.10892 6.2379 6.56946 5.77737 6.56946 5.20929C6.56946 4.6412 6.10892 4.18066 5.54084 4.18066C4.97274 4.18066 4.51221 4.6412 4.51221 5.20929C4.51221 5.77737 4.97274 6.2379 5.54084 6.2379Z" fill="black"/>
<path d="M5.54084 9.88343C6.10892 9.88343 6.56946 9.4229 6.56946 8.8548C6.56946 8.2867 6.10892 7.82617 5.54084 7.82617C4.97274 7.82617 4.51221 8.2867 4.51221 8.8548C4.51221 9.4229 4.97274 9.88343 5.54084 9.88343Z" fill="black"/>
<path d="M6.56892 5.20898H4.51221V8.87838H6.56892V5.20898Z" fill="black"/>
<path d="M12.8328 7.36097C13.4009 7.36097 13.8614 6.90044 13.8614 6.33234C13.8614 5.76424 13.4009 5.30371 12.8328 5.30371C12.2647 5.30371 11.8042 5.76424 11.8042 6.33234C11.8042 6.90044 12.2647 7.36097 12.8328 7.36097Z" fill="black"/>
<path d="M12.8328 6.2379C13.4009 6.2379 13.8614 5.77737 13.8614 5.20929C13.8614 4.6412 13.4009 4.18066 12.8328 4.18066C12.2647 4.18066 11.8042 4.6412 11.8042 5.20929C11.8042 5.77737 12.2647 6.2379 12.8328 6.2379Z" fill="black"/>
<path d="M11.804 6.33111H13.8612V5.20898H11.804V6.33111Z" fill="black"/>
<path d="M9.18707 4.08753C9.7552 4.08753 10.2157 3.627 10.2157 3.0589C10.2157 2.49081 9.7552 2.03027 9.18707 2.03027C8.61899 2.03027 8.15845 2.49081 8.15845 3.0589C8.15845 3.627 8.61899 4.08753 9.18707 4.08753Z" fill="black"/>
<path d="M9.18707 2.96644C9.7552 2.96644 10.2157 2.5059 10.2157 1.93781C10.2157 1.36971 9.7552 0.90918 9.18707 0.90918C8.61899 0.90918 8.15845 1.36971 8.15845 1.93781C8.15845 2.5059 8.61899 2.96644 9.18707 2.96644Z" fill="black"/>
<path d="M8.15845 3.05964H10.2157V1.9375H8.15845V3.05964Z" fill="black"/>
<path d="M9.18707 17.3639C9.7552 17.3639 10.2157 16.9034 10.2157 16.3353C10.2157 15.7672 9.7552 15.3066 9.18707 15.3066C8.61899 15.3066 8.15845 15.7672 8.15845 16.3353C8.15845 16.9034 8.61899 17.3639 9.18707 17.3639Z" fill="black"/>
<path d="M9.18707 16.2418C9.7552 16.2418 10.2157 15.7813 10.2157 15.2132C10.2157 14.6451 9.7552 14.1846 9.18707 14.1846C8.61899 14.1846 8.15845 14.6451 8.15845 15.2132C8.15845 15.7813 8.61899 16.2418 9.18707 16.2418Z" fill="black"/>
<path d="M8.15845 16.335H10.2157V15.2129H8.15845V16.335Z" fill="black"/>
<path d="M12.8328 14.0915C13.4009 14.0915 13.8614 13.631 13.8614 13.0629C13.8614 12.4948 13.4009 12.0342 12.8328 12.0342C12.2647 12.0342 11.8042 12.4948 11.8042 13.0629C11.8042 13.631 12.2647 14.0915 12.8328 14.0915Z" fill="black"/>
<path d="M12.8328 10.4459C13.4009 10.4459 13.8614 9.9854 13.8614 9.4173C13.8614 8.8492 13.4009 8.38867 12.8328 8.38867C12.2647 8.38867 11.8042 8.8492 11.8042 9.4173C11.8042 9.9854 12.2647 10.4459 12.8328 10.4459Z" fill="black"/>
<path d="M11.804 13.063H13.8607V9.41699H11.804V13.063Z" fill="black"/>
<path d="M9.18707 7.17349C9.7552 7.17349 10.2157 6.71292 10.2157 6.14486C10.2157 5.57676 9.7552 5.11621 9.18707 5.11621C8.61899 5.11621 8.15845 5.57676 8.15845 6.14486C8.15845 6.71292 8.61899 7.17349 9.18707 7.17349Z" fill="black"/>
<path d="M9.18707 13.1569C9.7552 13.1569 10.2157 12.6963 10.2157 12.1282C10.2157 11.5601 9.7552 11.0996 9.18707 11.0996C8.61899 11.0996 8.15845 11.5601 8.15845 12.1282C8.15845 12.6963 8.61899 13.1569 9.18707 13.1569Z" fill="black"/>
</svg>
