<svg width="17" height="18" viewBox="0 0 17 18" fill="none" xmlns="http://www.w3.org/2000/svg">
<path d="M8.35186 0.908203C6.72472 0.908203 5.13414 1.39069 3.78123 2.29465C2.42837 3.19865 1.37392 4.48352 0.751215 5.98675C0.128556 7.49003 -0.0343592 9.14417 0.283096 10.74C0.600504 12.3359 1.38402 13.8017 2.53457 14.9523C3.68513 16.1028 5.15103 16.8864 6.74688 17.2038C8.34272 17.5212 9.99685 17.3583 11.5001 16.7356C13.0034 16.1129 14.2882 15.0585 15.1922 13.7056C16.0962 12.3527 16.5787 10.7622 16.5787 9.13505C16.5787 6.95313 15.7119 4.86062 14.1691 3.3178C12.6262 1.77494 10.5337 0.908203 8.35186 0.908203ZM12.1271 12.7724C12.0921 12.8306 12.0459 12.8812 11.9912 12.9213C11.9364 12.9614 11.8743 12.9902 11.8083 13.0061C11.7423 13.022 11.6738 13.0246 11.6068 13.0138C11.5398 13.003 11.4756 12.979 11.418 12.9432C9.48772 11.7613 7.0584 11.4987 4.19575 12.1487C4.13061 12.1642 4.06308 12.1667 3.99699 12.1559C3.93094 12.1451 3.86762 12.1213 3.81086 12.0859C3.75405 12.0505 3.70484 12.0042 3.66608 11.9495C3.62731 11.8949 3.59984 11.8332 3.58515 11.7679C3.5695 11.7024 3.56701 11.6344 3.57768 11.5679C3.5884 11.5013 3.61209 11.4376 3.64746 11.3803C3.68283 11.323 3.72921 11.2732 3.78381 11.2338C3.83847 11.1944 3.90035 11.1661 3.96592 11.1507C7.09778 10.435 9.78972 10.7436 11.9564 12.0699C12.072 12.1406 12.1549 12.2542 12.1869 12.3859C12.2189 12.5176 12.1974 12.6566 12.1271 12.7724ZM13.1317 10.5335C13.0399 10.6747 12.8975 10.7751 12.7337 10.8142C12.57 10.8534 12.3975 10.8281 12.2519 10.7436C9.75545 9.35104 6.80833 9.00629 4.05786 9.78501C3.97229 9.83276 3.87709 9.86071 3.77932 9.86684C3.68149 9.87297 3.58357 9.85714 3.49268 9.82049C3.4018 9.78385 3.32029 9.72737 3.2541 9.6551C3.18791 9.58287 3.13871 9.4967 3.11014 9.40299C3.08156 9.30923 3.07434 9.21031 3.08898 9.11342C3.10363 9.01652 3.13976 8.92417 3.19475 8.84306C3.24974 8.76195 3.32221 8.69422 3.40678 8.64474C3.49139 8.5953 3.58596 8.56537 3.6836 8.55726C5.2188 8.11532 6.82685 7.98463 8.41326 8.17296C9.99968 8.36125 11.5325 8.86469 12.9216 9.65374C13.0627 9.74547 13.1632 9.88794 13.2023 10.0517C13.2414 10.2154 13.2161 10.3879 13.1317 10.5335ZM13.217 8.2027C10.5907 6.62691 6.19831 6.48247 3.66393 7.25066C3.4689 7.3099 3.25831 7.28919 3.07855 7.19312C2.89879 7.09709 2.76454 6.93357 2.70534 6.73853C2.64614 6.54354 2.66681 6.33295 2.76287 6.15316C2.85887 5.97342 3.02241 5.83916 3.21744 5.77997C6.12608 4.90016 10.9519 5.07087 14.0049 6.87641C14.1619 6.98876 14.2708 7.15604 14.31 7.34505C14.3492 7.53401 14.3159 7.73083 14.2166 7.89638C14.1173 8.06188 13.9593 8.18392 13.7741 8.23823C13.5889 8.2926 13.39 8.27522 13.217 8.18957V8.2027Z" fill="black"/>
</svg>
