<svg width="15" height="12" viewBox="0 0 15 12" fill="none" xmlns="http://www.w3.org/2000/svg">
<path fill-rule="evenodd" clip-rule="evenodd" d="M2.34676 1.15433C1.32842 1.20478 0.51041 2.00215 0.444323 3.01959C0.381006 3.99438 0.318604 5.19381 0.318604 6.13493C0.318604 7.07605 0.381006 8.27549 0.444323 9.25027C0.51041 10.2677 1.32842 11.0651 2.34676 11.1155C3.82137 11.1886 5.92903 11.2767 7.51708 11.2767C9.10513 11.2767 11.2128 11.1886 12.6874 11.1155C13.7057 11.0651 14.5237 10.2677 14.5898 9.25027C14.6532 8.27549 14.7156 7.07605 14.7156 6.13493C14.7156 5.19381 14.6532 3.99438 14.5898 3.01959C14.5237 2.00215 13.7057 1.20478 12.6874 1.15433C11.2128 1.08127 9.10513 0.993164 7.51708 0.993164C5.92903 0.993164 3.82137 1.08127 2.34676 1.15433ZM10.0878 6.1351L5.9744 8.1918V4.07839L10.0878 6.1351Z" fill="black"/>
</svg>
